<svg width="602" height="410" viewBox="0 0 602 410" fill="none" xmlns="http://www.w3.org/2000/svg">
<path d="M1.58495 210.603C7.97523 170.033 46.4358 120.999 94.9868 106.51C143.538 92.0216 202.485 112.548 254.73 94.6576C307.506 76.7571 353.355 20.9201 388.798 5.25398C424.241 -10.4122 449.125 13.8575 492.266 38.9683C535.631 63.599 597.1 88.8358 601.409 133.484C605.565 177.898 552.182 241.968 490.952 296.433C429.722 350.898 360.041 396.484 300.639 406.659C241.237 416.834 191.357 392.09 150.811 370.974C109.888 350.104 78.8277 332.852 49.9275 308.183C21.4048 283.269 -4.27523 251.163 1.58495 210.603Z" fill="#E6E8AE"/>
</svg>
