<svg width="74" height="74" viewBox="0 0 74 74" fill="none" xmlns="http://www.w3.org/2000/svg">
<g clip-path="url(#clip0_7_242)">
<circle cx="37.0723" cy="36.9277" r="30.1348" fill="#F5E1FF"/>
<path d="M57.668 55.5289C54.4738 49.9789 48.4758 46.25 41.625 46.25H32.375C25.5242 46.25 19.5262 49.9789 16.332 55.5289C21.4195 61.1945 28.7906 64.75 37 64.75C45.2094 64.75 52.5805 61.1801 57.668 55.5289ZM74 37C74 57.4367 57.4367 74 37 74C16.5633 74 0 57.4367 0 37C0 16.5633 16.5633 0 37 0C57.4367 0 74 16.5633 74 37ZM37 39.3125C42.7523 39.3125 47.4062 34.6586 47.4062 28.9062C47.4062 23.1539 42.7523 18.5 37 18.5C31.2477 18.5 26.5938 23.1539 26.5938 28.9062C26.5938 34.6586 31.2477 39.3125 37 39.3125Z" fill="#0E6500"/>
</g>
<defs>
<clipPath id="clip0_7_242">
<rect width="74" height="74" fill="white"/>
</clipPath>
</defs>
</svg>
