<svg width="286" height="293" viewBox="0 0 286 293" fill="none" xmlns="http://www.w3.org/2000/svg">
<path d="M17.8399 193.55C32 175.333 53.2752 165.751 66.4272 158.793C79.7653 151.675 84.9803 147.182 100.947 113.737C116.593 80.2962 142.804 18.0645 166.265 3.86392C189.727 -10.3367 210.626 23.3333 234.709 53.1659C258.927 83.1555 286.515 109.147 285.389 139.101C284.263 169.054 254.287 202.812 221.774 217.43C189.26 232.048 154.073 227.368 125.723 240.039C97.3222 253.027 75.707 283.682 54.0109 290.893C32.3148 298.104 10.8593 281.866 3.58638 260.243C-3.55131 238.777 3.67987 211.766 17.8399 193.55Z" fill="#B5C8E6"/>
</svg>
