<svg width="74" height="74" viewBox="0 0 74 74" fill="none" xmlns="http://www.w3.org/2000/svg">
<g clip-path="url(#clip0_7_256)">
<path d="M10.8398 10.8398L5.92578 5.92578C3.74336 3.74336 0 5.28984 0 8.36836V24.2812C0 26.2035 1.54648 27.75 3.46875 27.75H19.3816C22.4746 27.75 24.0211 24.0066 21.8387 21.8242L17.3871 17.3727C22.4023 12.3574 29.3398 9.25 37 9.25C52.3203 9.25 64.75 21.6797 64.75 37C64.75 52.3203 52.3203 64.75 37 64.75C31.1031 64.75 25.6398 62.9145 21.1449 59.7781C19.0492 58.3184 16.173 58.8242 14.6988 60.9199C13.2246 63.0156 13.7449 65.8918 15.8406 67.366C21.8531 71.543 29.152 74 37 74C57.4367 74 74 57.4367 74 37C74 16.5633 57.4367 0 37 0C26.7816 0 17.5316 4.14805 10.8398 10.8398ZM37 18.5C35.0777 18.5 33.5312 20.0465 33.5312 21.9688V37C33.5312 37.925 33.8926 38.8066 34.543 39.457L44.9492 49.8633C46.3078 51.2219 48.5047 51.2219 49.8488 49.8633C51.193 48.5047 51.2074 46.3078 49.8488 44.9637L40.4543 35.5691V21.9688C40.4543 20.0465 38.9078 18.5 36.9855 18.5H37Z" fill="black"/>
</g>
<defs>
<clipPath id="clip0_7_256">
<rect width="74" height="74" fill="white"/>
</clipPath>
</defs>
</svg>
