<svg xmlns="http://www.w3.org/2000/svg" version="1.1" preserveAspectRatio='none' xmlns:xlink="http://www.w3.org/1999/xlink" xmlns:svgjs="http://svgjs.dev/svgjs" viewBox="0 0 800 800" opacity="1">
    <defs>
        <linearGradient gradientTransform="rotate(270)" x1="50%" y1="0%" x2="50%" y2="100%" id="sssquiggly-grad">
            <stop stop-color="hsl(206, 75%, 49%)" stop-opacity="1" offset="0%"></stop>
            <stop stop-color="#A23D99" stop-opacity="1" offset="100%"></stop>
        </linearGradient>
    </defs>
    <g stroke-width="3" stroke="url(#sssquiggly-grad)" fill="none" stroke-linecap="round" transform="matrix(1,0,0,1,-5,-1346.4989852905273)">
        <path d="M10,10C20.73717948717949,14.583333333333332,37.98076923076923,42.20833333333333,61.53846153846154,32C85.09615384615384,21.791666666666668,97.43589743589745,-39.416666666666664,123.07692307692308,-39C148.71794871794873,-38.583333333333336,158.97435897435898,31.291666666666668,184.6153846153846,34C210.25641025641025,36.708333333333336,220.51282051282053,-24.958333333333332,246.15384615384616,-26C271.7948717948718,-27.041666666666668,282.05128205128204,25.666666666666668,307.6923076923077,29C333.3333333333333,32.333333333333336,343.5897435897436,-12.083333333333334,369.2307692307692,-10C394.87179487179486,-7.916666666666666,405.12820512820514,39.208333333333336,430.7692307692308,39C456.4102564102564,38.791666666666664,466.6666666666667,-17.041666666666664,492.3076923076923,-11C517.948717948718,-4.958333333333334,528.2051282051282,64.875,553.8461538461538,68C579.4871794871794,71.125,589.7435897435897,9.833333333333334,615.3846153846154,4C641.025641025641,-1.833333333333334,651.2820512820513,44.375,676.9230769230769,40C702.5641025641025,35.625,712.8205128205128,-24.5,738.4615384615385,-17C764.1025641025641,-9.5,787.1794871794872,56.625,800,76" transform="matrix(1,0,0,1,0,2048)"></path>
        <path d="M10,10C20.73717948717949,14.583333333333332,37.98076923076923,42.20833333333333,61.53846153846154,32C85.09615384615384,21.791666666666668,97.43589743589745,-39.416666666666664,123.07692307692308,-39C148.71794871794873,-38.583333333333336,158.97435897435898,31.291666666666668,184.6153846153846,34C210.25641025641025,36.708333333333336,220.51282051282053,-24.958333333333332,246.15384615384616,-26C271.7948717948718,-27.041666666666668,282.05128205128204,25.666666666666668,307.6923076923077,29C333.3333333333333,32.333333333333336,343.5897435897436,-12.083333333333334,369.2307692307692,-10C394.87179487179486,-7.916666666666666,405.12820512820514,39.208333333333336,430.7692307692308,39C456.4102564102564,38.791666666666664,466.6666666666667,-17.041666666666664,492.3076923076923,-11C517.948717948718,-4.958333333333334,528.2051282051282,64.875,553.8461538461538,68C579.4871794871794,71.125,589.7435897435897,9.833333333333334,615.3846153846154,4C641.025641025641,-1.833333333333334,651.2820512820513,44.375,676.9230769230769,40C702.5641025641025,35.625,712.8205128205128,-24.5,738.4615384615385,-17C764.1025641025641,-9.5,787.1794871794872,56.625,800,76" transform="matrix(1,0,0,1,0,1920)"></path>
        <path d="M10,10C20.73717948717949,14.583333333333332,37.98076923076923,42.20833333333333,61.53846153846154,32C85.09615384615384,21.791666666666668,97.43589743589745,-39.416666666666664,123.07692307692308,-39C148.71794871794873,-38.583333333333336,158.97435897435898,31.291666666666668,184.6153846153846,34C210.25641025641025,36.708333333333336,220.51282051282053,-24.958333333333332,246.15384615384616,-26C271.7948717948718,-27.041666666666668,282.05128205128204,25.666666666666668,307.6923076923077,29C333.3333333333333,32.333333333333336,343.5897435897436,-12.083333333333334,369.2307692307692,-10C394.87179487179486,-7.916666666666666,405.12820512820514,39.208333333333336,430.7692307692308,39C456.4102564102564,38.791666666666664,466.6666666666667,-17.041666666666664,492.3076923076923,-11C517.948717948718,-4.958333333333334,528.2051282051282,64.875,553.8461538461538,68C579.4871794871794,71.125,589.7435897435897,9.833333333333334,615.3846153846154,4C641.025641025641,-1.833333333333334,651.2820512820513,44.375,676.9230769230769,40C702.5641025641025,35.625,712.8205128205128,-24.5,738.4615384615385,-17C764.1025641025641,-9.5,787.1794871794872,56.625,800,76" transform="matrix(1,0,0,1,0,1536)"></path>
        <path d="M10,10C20.73717948717949,14.583333333333332,37.98076923076923,42.20833333333333,61.53846153846154,32C85.09615384615384,21.791666666666668,97.43589743589745,-39.416666666666664,123.07692307692308,-39C148.71794871794873,-38.583333333333336,158.97435897435898,31.291666666666668,184.6153846153846,34C210.25641025641025,36.708333333333336,220.51282051282053,-24.958333333333332,246.15384615384616,-26C271.7948717948718,-27.041666666666668,282.05128205128204,25.666666666666668,307.6923076923077,29C333.3333333333333,32.333333333333336,343.5897435897436,-12.083333333333334,369.2307692307692,-10C394.87179487179486,-7.916666666666666,405.12820512820514,39.208333333333336,430.7692307692308,39C456.4102564102564,38.791666666666664,466.6666666666667,-17.041666666666664,492.3076923076923,-11C517.948717948718,-4.958333333333334,528.2051282051282,64.875,553.8461538461538,68C579.4871794871794,71.125,589.7435897435897,9.833333333333334,615.3846153846154,4C641.025641025641,-1.833333333333334,651.2820512820513,44.375,676.9230769230769,40C702.5641025641025,35.625,712.8205128205128,-24.5,738.4615384615385,-17C764.1025641025641,-9.5,787.1794871794872,56.625,800,76" transform="matrix(1,0,0,1,0,1408)"></path>
    </g>
</svg>
