<svg width="713" height="390" viewBox="0 0 713 390" fill="none" xmlns="http://www.w3.org/2000/svg">
<path d="M361.866 328.194C339.94 329.717 317.601 331.586 233.8 349.87C149.241 368.088 3.15267 403.481 0.605565 384.524C-1.52892 365.22 140.224 291.98 204.099 234.866C267.562 178.099 252.39 137.391 261.472 90.3948C270.141 43.7443 302.306 -9.26188 329.587 2.30082C356.455 14.2097 378.093 90.2749 463.805 106.95C549.518 123.624 698.959 80.4963 711.637 97.281C723.902 114.412 599.124 190.284 529.215 237.694C458.894 285.451 443.508 303.986 424.646 314.188C405.784 324.39 384.204 326.325 361.866 328.194Z" fill="#A3D9CF"/>
</svg>